<svg width="372" height="92" viewBox="0 0 372 92" fill="none" xmlns="http://www.w3.org/2000/svg">
<rect width="372" height="92" rx="10" fill="url(#paint0_linear_342_1430)"/>
<mask id="mask0_342_1430" style="mask-type:alpha" maskUnits="userSpaceOnUse" x="0" y="0" width="372" height="92">
<rect width="372" height="92" rx="10" fill="url(#paint1_linear_342_1430)"/>
</mask>
<g mask="url(#mask0_342_1430)">
<path d="M156.313 48.6214C108.83 45.0337 51.474 71.6512 28.5904 85.4861C28.5007 85.5403 28.4087 85.6244 28.3407 85.7043C-13.0815 134.447 343.667 111.522 381.095 108.031C418.559 104.536 386.447 43.1297 381.095 36.6397C375.743 30.1496 331.738 34.1435 284.165 54.113C236.592 74.0825 215.779 53.1145 156.313 48.6214Z" fill="url(#paint2_linear_342_1430)"/>
</g>
<defs>
<linearGradient id="paint0_linear_342_1430" x1="0" y1="0" x2="376.264" y2="68.6146" gradientUnits="userSpaceOnUse">
<stop stop-color="#E7FFFC"/>
<stop offset="1" stop-color="#C0FFFB" stop-opacity="0.73"/>
</linearGradient>
<linearGradient id="paint1_linear_342_1430" x1="0" y1="0" x2="376.264" y2="68.6146" gradientUnits="userSpaceOnUse">
<stop stop-color="#A7D7FF"/>
<stop offset="1" stop-color="#07365E"/>
</linearGradient>
<linearGradient id="paint2_linear_342_1430" x1="77.8171" y1="34.1434" x2="349.336" y2="136.491" gradientUnits="userSpaceOnUse">
<stop stop-color="#D6DFEE" stop-opacity="0.14"/>
<stop offset="1" stop-color="#579AFF" stop-opacity="0.27"/>
</linearGradient>
</defs>
</svg>
