<svg width="372" height="79" viewBox="0 0 372 79" fill="none" xmlns="http://www.w3.org/2000/svg">
<rect width="372" height="79" rx="10" fill="url(#paint0_linear_288_436)"/>
<mask id="mask0_288_436" style="mask-type:alpha" maskUnits="userSpaceOnUse" x="0" y="0" width="372" height="79">
<rect width="372" height="79" rx="10" fill="url(#paint1_linear_288_436)"/>
</mask>
<g mask="url(#mask0_288_436)">
<path d="M156.313 41.751C108.83 38.6702 51.4739 61.5266 28.5904 73.4065C28.5005 73.4532 28.4037 73.5302 28.3325 73.6022C-13.0344 115.446 343.669 95.7632 381.095 92.7654C418.559 89.7645 386.447 37.0353 381.095 31.4623C375.743 25.8893 331.738 29.3188 284.165 46.4666C236.592 63.6143 215.779 45.6092 156.313 41.751Z" fill="url(#paint2_linear_288_436)"/>
</g>
<defs>
<linearGradient id="paint0_linear_288_436" x1="0" y1="0" x2="372" y2="79" gradientUnits="userSpaceOnUse">
<stop stop-color="#F0F4FF"/>
<stop offset="1" stop-color="#D4CDFF" stop-opacity="0.73"/>
</linearGradient>
<linearGradient id="paint1_linear_288_436" x1="0" y1="0" x2="372" y2="79" gradientUnits="userSpaceOnUse">
<stop stop-color="#A7D7FF"/>
<stop offset="1" stop-color="#07365E"/>
</linearGradient>
<linearGradient id="paint2_linear_288_436" x1="77.8171" y1="29.3188" x2="337.814" y2="143.45" gradientUnits="userSpaceOnUse">
<stop stop-color="#E7D0FF" stop-opacity="0.38"/>
<stop offset="1" stop-color="#C993FF" stop-opacity="0.34"/>
</linearGradient>
</defs>
</svg>
