<svg width="390" height="100" viewBox="0 0 390 100" fill="none" xmlns="http://www.w3.org/2000/svg">
<mask id="mask0_418_7" style="mask-type:alpha" maskUnits="userSpaceOnUse" x="0" y="0" width="390" height="100">
<rect width="390" height="100" fill="#D9D9D9"/>
</mask>
<g mask="url(#mask0_418_7)">
<path d="M0 231.383V-29H390V338.277C370.673 352.438 324.984 379.481 296.836 374.365C261.652 367.969 214.574 291.682 175.426 296.25C136.277 300.818 118.437 345.586 59.9619 338.277C13.1817 332.429 0.495553 264.578 0 231.383Z" fill="#0077DD"/>
<g filter="url(#filter0_d_418_7)">
<path d="M130.341 264.805C11.9296 340.748 3.95324 256.11 1.00256 190.21V-29H390V321.072C355.411 358.09 317.815 363.118 301.272 348.036C276.542 325.49 215.051 210.475 130.341 264.805Z" fill="#1C31A0" fill-opacity="0.21" shape-rendering="crispEdges"/>
</g>
<g filter="url(#filter1_d_418_7)">
<path d="M265.681 56.0045C217.558 58.5638 190.154 0.705902 182.468 -28.543H388.997V197.222C369.949 208.19 321.324 169.344 336.864 132.783C352.404 96.2217 325.835 52.8055 265.681 56.0045Z" fill="#83A6C3" fill-opacity="0.16" shape-rendering="crispEdges"/>
</g>
</g>
<defs>
<filter id="filter0_d_418_7" x="-18.8974" y="-43.9" width="428.797" height="424.779" filterUnits="userSpaceOnUse" color-interpolation-filters="sRGB">
<feFlood flood-opacity="0" result="BackgroundImageFix"/>
<feColorMatrix in="SourceAlpha" type="matrix" values="0 0 0 0 0 0 0 0 0 0 0 0 0 0 0 0 0 0 127 0" result="hardAlpha"/>
<feOffset dy="5"/>
<feGaussianBlur stdDeviation="9.95"/>
<feComposite in2="hardAlpha" operator="out"/>
<feColorMatrix type="matrix" values="0 0 0 0 0.174787 0 0 0 0 0.296541 0 0 0 0 0.72822 0 0 0 0.65 0"/>
<feBlend mode="normal" in2="BackgroundImageFix" result="effect1_dropShadow_418_7"/>
<feBlend mode="normal" in="SourceGraphic" in2="effect1_dropShadow_418_7" result="shape"/>
</filter>
<filter id="filter1_d_418_7" x="160.468" y="-46.543" width="250.53" height="271.652" filterUnits="userSpaceOnUse" color-interpolation-filters="sRGB">
<feFlood flood-opacity="0" result="BackgroundImageFix"/>
<feColorMatrix in="SourceAlpha" type="matrix" values="0 0 0 0 0 0 0 0 0 0 0 0 0 0 0 0 0 0 127 0" result="hardAlpha"/>
<feOffset dy="4"/>
<feGaussianBlur stdDeviation="11"/>
<feComposite in2="hardAlpha" operator="out"/>
<feColorMatrix type="matrix" values="0 0 0 0 0.334832 0 0 0 0 0.518289 0 0 0 0 0.990038 0 0 0 0.15 0"/>
<feBlend mode="normal" in2="BackgroundImageFix" result="effect1_dropShadow_418_7"/>
<feBlend mode="normal" in="SourceGraphic" in2="effect1_dropShadow_418_7" result="shape"/>
</filter>
</defs>
</svg>
