<svg width="599" height="599" viewBox="0 0 599 599" fill="none" xmlns="http://www.w3.org/2000/svg">
<circle cx="299.5" cy="299.5" r="299.5" fill="#F2F3F9"/>
<g filter="url(#filter0_ii_493_40)">
<path d="M292.49 505.184C263.484 469.382 151 325.527 151 247.725C151 158.407 217.373 86 299.248 86C381.123 86 447.496 158.407 447.496 247.725C447.496 325.527 335.012 469.382 306.006 505.184C302.487 509.527 296.008 509.527 292.49 505.184Z" fill="#1B3B75"/>
</g>
<path d="M379.178 386.857C348.447 435.416 314.228 479.088 299.248 497.638C284.267 479.088 250.049 435.416 219.318 386.857C203.592 362.008 188.906 336.076 178.181 311.712C167.367 287.145 161 265.09 161 247.725C161 163.093 223.697 96 299.248 96C374.799 96 437.496 163.093 437.496 247.725C437.496 265.09 431.128 287.145 420.314 311.712C409.59 336.076 394.904 362.008 379.178 386.857Z" stroke="#8A7EE9" stroke-width="20" stroke-linejoin="round"/>
<g filter="url(#filter1_d_493_40)">
<path d="M162.552 474.91L299.248 236.173L435.944 474.91" stroke="#8A7EE9" stroke-width="20" stroke-linecap="round" stroke-linejoin="round"/>
</g>
<circle cx="299.248" cy="234.248" r="78.9371" fill="#CDC6FF"/>
<defs>
<filter id="filter0_ii_493_40" x="123.3" y="86" width="356.796" height="426.441" filterUnits="userSpaceOnUse" color-interpolation-filters="sRGB">
<feFlood flood-opacity="0" result="BackgroundImageFix"/>
<feBlend mode="normal" in="SourceGraphic" in2="BackgroundImageFix" result="shape"/>
<feColorMatrix in="SourceAlpha" type="matrix" values="0 0 0 0 0 0 0 0 0 0 0 0 0 0 0 0 0 0 127 0" result="hardAlpha"/>
<feOffset dx="39" dy="4"/>
<feGaussianBlur stdDeviation="16.3"/>
<feComposite in2="hardAlpha" operator="arithmetic" k2="-1" k3="1"/>
<feColorMatrix type="matrix" values="0 0 0 0 0.136091 0 0 0 0 0.0494176 0 0 0 0 0.222765 0 0 0 0.51 0"/>
<feBlend mode="normal" in2="shape" result="effect1_innerShadow_493_40"/>
<feColorMatrix in="SourceAlpha" type="matrix" values="0 0 0 0 0 0 0 0 0 0 0 0 0 0 0 0 0 0 127 0" result="hardAlpha"/>
<feOffset dx="-33" dy="4"/>
<feGaussianBlur stdDeviation="13.85"/>
<feComposite in2="hardAlpha" operator="arithmetic" k2="-1" k3="1"/>
<feColorMatrix type="matrix" values="0 0 0 0 0.0518736 0 0 0 0 0.0413359 0 0 0 0 0.56822 0 0 0 0.24 0"/>
<feBlend mode="normal" in2="effect1_innerShadow_493_40" result="effect2_innerShadow_493_40"/>
</filter>
<filter id="filter1_d_493_40" x="147.65" y="218.273" width="317.196" height="282.538" filterUnits="userSpaceOnUse" color-interpolation-filters="sRGB">
<feFlood flood-opacity="0" result="BackgroundImageFix"/>
<feColorMatrix in="SourceAlpha" type="matrix" values="0 0 0 0 0 0 0 0 0 0 0 0 0 0 0 0 0 0 127 0" result="hardAlpha"/>
<feOffset dx="7" dy="4"/>
<feGaussianBlur stdDeviation="5.95"/>
<feComposite in2="hardAlpha" operator="out"/>
<feColorMatrix type="matrix" values="0 0 0 0 0 0 0 0 0 0 0 0 0 0 0 0 0 0 0.49 0"/>
<feBlend mode="normal" in2="BackgroundImageFix" result="effect1_dropShadow_493_40"/>
<feBlend mode="normal" in="SourceGraphic" in2="effect1_dropShadow_493_40" result="shape"/>
</filter>
</defs>
</svg>
