<svg width="38" height="38" viewBox="0 0 38 38" fill="none" xmlns="http://www.w3.org/2000/svg">
<path fill-rule="evenodd" clip-rule="evenodd" d="M31.95 9.07501C31.95 7.35773 31.2678 5.71079 30.0535 4.49649C28.8392 3.28219 27.1923 2.60001 25.475 2.60001H12.525C10.8077 2.60001 9.16077 3.28219 7.94647 4.49649C6.73217 5.71079 6.04999 7.35773 6.04999 9.07501V21.9418C6.04938 23.3251 6.49181 24.6722 7.31245 25.7858C8.13308 26.8994 9.28879 27.7209 10.6102 28.13C13.3256 28.9818 16.1541 29.4184 19 29.425C21.8459 29.4178 24.6744 28.9806 27.3897 28.1282C28.7109 27.7192 29.8664 26.8979 30.687 25.7847C31.5076 24.6715 31.9502 23.3248 31.95 21.9418V9.07501ZM7.89999 21.9418V9.07501C7.89999 7.84838 8.38726 6.67199 9.25462 5.80464C10.122 4.93728 11.2984 4.45001 12.525 4.45001H25.475C26.7016 4.45001 27.878 4.93728 28.7454 5.80464C29.6127 6.67199 30.1 7.84838 30.1 9.07501V21.9418C30.1004 22.9296 29.7845 23.8916 29.1986 24.6869C28.6127 25.4822 27.7875 26.069 26.844 26.3614C24.3054 27.1589 21.6609 27.5681 19 27.575C16.3391 27.5681 13.6946 27.1589 11.156 26.3614C10.2124 26.069 9.38728 25.4822 8.80137 24.6869C8.21546 23.8916 7.89958 22.9296 7.89999 21.9418Z" fill="#01215B"/>
<path fill-rule="evenodd" clip-rule="evenodd" d="M12.525 24.8C13.261 24.8 13.9668 24.5076 14.4872 23.9872C15.0076 23.4668 15.3 22.761 15.3 22.025C15.3 21.289 15.0076 20.5832 14.4872 20.0628C13.9668 19.5424 13.261 19.25 12.525 19.25C11.789 19.25 11.0832 19.5424 10.5628 20.0628C10.0424 20.5832 9.75 21.289 9.75 22.025C9.75 22.761 10.0424 23.4668 10.5628 23.9872C11.0832 24.5076 11.789 24.8 12.525 24.8ZM12.525 21.1C12.7703 21.1 13.0056 21.1975 13.1791 21.3709C13.3525 21.5444 13.45 21.7797 13.45 22.025C13.45 22.2703 13.3525 22.5056 13.1791 22.6791C13.0056 22.8525 12.7703 22.95 12.525 22.95C12.2797 22.95 12.0444 22.8525 11.8709 22.6791C11.6975 22.5056 11.6 22.2703 11.6 22.025C11.6 21.7797 11.6975 21.5444 11.8709 21.3709C12.0444 21.1975 12.2797 21.1 12.525 21.1ZM25.475 24.8C26.211 24.8 26.9168 24.5076 27.4372 23.9872C27.9576 23.4668 28.25 22.761 28.25 22.025C28.25 21.289 27.9576 20.5832 27.4372 20.0628C26.9168 19.5424 26.211 19.25 25.475 19.25C24.739 19.25 24.0332 19.5424 23.5128 20.0628C22.9924 20.5832 22.7 21.289 22.7 22.025C22.7 22.761 22.9924 23.4668 23.5128 23.9872C24.0332 24.5076 24.739 24.8 25.475 24.8ZM25.475 21.1C25.7203 21.1 25.9556 21.1975 26.1291 21.3709C26.3025 21.5444 26.4 21.7797 26.4 22.025C26.4 22.2703 26.3025 22.5056 26.1291 22.6791C25.9556 22.8525 25.7203 22.95 25.475 22.95C25.2297 22.95 24.9944 22.8525 24.8209 22.6791C24.6475 22.5056 24.55 22.2703 24.55 22.025C24.55 21.7797 24.6475 21.5444 24.8209 21.3709C24.9944 21.1975 25.2297 21.1 25.475 21.1Z" fill="#01215B"/>
<path d="M29.2342 35.3006C29.3248 35.524 29.499 35.7032 29.7198 35.8001C29.9406 35.8969 30.1904 35.9037 30.4162 35.8191C30.6419 35.7344 30.8257 35.565 30.9283 35.3469C31.031 35.1288 31.0444 34.8792 30.9658 34.6513L28.1908 27.2513C28.0986 27.0304 27.9245 26.8539 27.7049 26.7587C27.4853 26.6636 27.2373 26.6573 27.0132 26.7411C26.789 26.8249 26.606 26.9923 26.5027 27.2082C26.3994 27.4241 26.3838 27.6716 26.4592 27.8988L29.2342 35.2988M10.7342 27.2513C10.7734 27.1332 10.836 27.0243 10.9182 26.9309C11.0004 26.8376 11.1007 26.7619 11.2129 26.7082C11.3251 26.6545 11.447 26.624 11.5712 26.6185C11.6955 26.613 11.8196 26.6326 11.9361 26.6761C12.0526 26.7197 12.1592 26.7863 12.2493 26.872C12.3395 26.9577 12.4115 27.0607 12.4609 27.1748C12.5104 27.289 12.5363 27.4119 12.5371 27.5363C12.538 27.6607 12.5137 27.784 12.4658 27.8988L9.6908 35.2988C9.59864 35.5196 9.42446 35.6962 9.20486 35.7913C8.98526 35.8865 8.73733 35.8928 8.51316 35.809C8.289 35.7251 8.10605 35.5577 8.00275 35.3418C7.89945 35.1259 7.88384 34.8784 7.9592 34.6513L10.7342 27.2513Z" fill="#01215B"/>
<path fill-rule="evenodd" clip-rule="evenodd" d="M28.25 10C28.25 9.01872 27.8602 8.07761 27.1663 7.38372C26.4724 6.68984 25.5313 6.30002 24.55 6.30002H13.45C12.4687 6.30002 11.5276 6.68984 10.8337 7.38372C10.1398 8.07761 9.75 9.01872 9.75 10V14.7453C9.75007 15.5471 10.0106 16.3272 10.4924 16.9682C10.9742 17.6091 11.6512 18.0762 12.4214 18.2991C14.6118 18.9355 16.8059 19.25 19 19.25C21.1941 19.25 23.3882 18.9337 25.5786 18.2991C26.3488 18.0762 27.0258 17.6091 27.5076 16.9682C27.9894 16.3272 28.2499 15.5471 28.25 14.7453V10ZM11.6 14.7453V10C11.6 9.50937 11.7949 9.03881 12.1419 8.69187C12.4888 8.34493 12.9593 8.15002 13.45 8.15002H24.55C25.0407 8.15002 25.5112 8.34493 25.8581 8.69187C26.2051 9.03881 26.4 9.50937 26.4 10V14.7453C26.3998 15.146 26.2694 15.5359 26.0285 15.8562C25.7876 16.1764 25.4493 16.4099 25.0643 16.5213C23.0945 17.0992 21.0528 17.395 19 17.4C16.9817 17.4 14.9596 17.1077 12.9357 16.5231C12.5504 16.4116 12.2118 16.1779 11.9709 15.8573C11.73 15.5366 11.5998 15.1463 11.6 14.7453Z" fill="#01215B"/>
<path d="M10.2125 33.125C9.96715 33.125 9.73187 33.0275 9.5584 32.8541C9.38493 32.6806 9.28748 32.4453 9.28748 32.2C9.28748 31.9547 9.38493 31.7194 9.5584 31.5459C9.73187 31.3724 9.96715 31.275 10.2125 31.275H28.7125C28.9578 31.275 29.1931 31.3724 29.3666 31.5459C29.54 31.7194 29.6375 31.9547 29.6375 32.2C29.6375 32.4453 29.54 32.6806 29.3666 32.8541C29.1931 33.0275 28.9578 33.125 28.7125 33.125H10.2125Z" fill="#01215B"/>
</svg>
