<svg width="37" height="38" viewBox="0 0 37 38" fill="none" xmlns="http://www.w3.org/2000/svg">
<path d="M12.3333 25.4166C12.7422 25.4166 13.1343 25.2542 13.4235 24.965C13.7126 24.6759 13.875 24.2838 13.875 23.8749C13.875 23.466 13.7126 23.0739 13.4235 22.7848C13.1343 22.4957 12.7422 22.3333 12.3333 22.3333C11.9245 22.3333 11.5323 22.4957 11.2432 22.7848C10.9541 23.0739 10.7917 23.466 10.7917 23.8749C10.7917 24.2838 10.9541 24.6759 11.2432 24.965C11.5323 25.2542 11.9245 25.4166 12.3333 25.4166ZM26.2083 23.8749C26.2083 24.2838 26.0459 24.6759 25.7568 24.965C25.4677 25.2542 25.0756 25.4166 24.6667 25.4166C24.2578 25.4166 23.8657 25.2542 23.5766 24.965C23.2874 24.6759 23.125 24.2838 23.125 23.8749C23.125 23.466 23.2874 23.0739 23.5766 22.7848C23.8657 22.4957 24.2578 22.3333 24.6667 22.3333C25.0756 22.3333 25.4677 22.4957 25.7568 22.7848C26.0459 23.0739 26.2083 23.466 26.2083 23.8749ZM16.5729 8.45825C16.2663 8.45825 15.9722 8.58007 15.7553 8.79691C15.5385 9.01375 15.4167 9.30785 15.4167 9.6145C15.4167 9.92116 15.5385 10.2153 15.7553 10.4321C15.9722 10.6489 16.2663 10.7708 16.5729 10.7708H20.4271C20.7338 10.7708 21.0278 10.6489 21.2447 10.4321C21.4615 10.2153 21.5833 9.92116 21.5833 9.6145C21.5833 9.30785 21.4615 9.01375 21.2447 8.79691C21.0278 8.58007 20.7338 8.45825 20.4271 8.45825H16.5729ZM11.9479 3.83325C10.4146 3.83325 8.94416 4.44235 7.85997 5.52654C6.77577 6.61074 6.16668 8.08122 6.16668 9.6145V15.3958H4.23959C3.93294 15.3958 3.63884 15.5176 3.422 15.7344C3.20516 15.9512 3.08334 16.2453 3.08334 16.552C3.08334 16.8587 3.20516 17.1528 3.422 17.3696C3.63884 17.5864 3.93294 17.7083 4.23959 17.7083H6.16668V31.1978C6.16668 32.6871 7.3738 33.8958 8.86459 33.8958H11.1771C11.8926 33.8958 12.5789 33.6115 13.0848 33.1055C13.5908 32.5996 13.875 31.9134 13.875 31.1978V29.2708H23.125V31.1978C23.125 32.6871 24.3337 33.8958 25.8229 33.8958H28.1354C28.851 33.8958 29.5372 33.6115 30.0431 33.1055C30.5491 32.5996 30.8333 31.9134 30.8333 31.1978V17.7083H32.725C33.0316 17.7083 33.3257 17.5864 33.5426 17.3696C33.7594 17.1528 33.8812 16.8587 33.8812 16.552C33.8812 16.2453 33.7594 15.9512 33.5426 15.7344C33.3257 15.5176 33.0316 15.3958 32.725 15.3958H30.8333V9.6145C30.8333 8.08122 30.2243 6.61074 29.1401 5.52654C28.0559 4.44235 26.5854 3.83325 25.0521 3.83325H11.9479ZM28.5208 29.2708V31.1978C28.5208 31.3001 28.4802 31.3981 28.408 31.4704C28.3357 31.5426 28.2376 31.5833 28.1354 31.5833H25.8229C25.7207 31.5833 25.6227 31.5426 25.5504 31.4704C25.4781 31.3981 25.4375 31.3001 25.4375 31.1978V29.2708H28.5208ZM28.5208 26.9583H8.47918V20.7916H28.5208V26.9583ZM8.47918 31.1978V29.2708H11.5625V31.1978C11.5625 31.3001 11.5219 31.3981 11.4496 31.4704C11.3773 31.5426 11.2793 31.5833 11.1771 31.5833H8.86459C8.76237 31.5833 8.66434 31.5426 8.59206 31.4704C8.51978 31.3981 8.47918 31.3001 8.47918 31.1978ZM8.47918 9.6145C8.47918 8.69453 8.84463 7.81224 9.49515 7.16173C10.1457 6.51121 11.028 6.14575 11.9479 6.14575H25.0521C25.9721 6.14575 26.8544 6.51121 27.5049 7.16173C28.1554 7.81224 28.5208 8.69453 28.5208 9.6145V18.4791H8.47918V9.6145Z" fill="#01215B"/>
</svg>
