<svg width="29" height="29" viewBox="0 0 29 29" fill="none" xmlns="http://www.w3.org/2000/svg">
<path d="M4 14.5H1L14.5 1L28 14.5H25M4 14.5V25C4 25.7956 4.31607 26.5587 4.87868 27.1213C5.44129 27.6839 6.20435 28 7 28H22C22.7956 28 23.5587 27.6839 24.1213 27.1213C24.6839 26.5587 25 25.7956 25 25V14.5" stroke="#01215B" stroke-width="2" stroke-linecap="round" stroke-linejoin="round"/>
<path d="M10 28V19C10 18.2044 10.3161 17.4413 10.8787 16.8787C11.4413 16.3161 12.2044 16 13 16H16C16.7956 16 17.5587 16.3161 18.1213 16.8787C18.6839 17.4413 19 18.2044 19 19V28" stroke="#01215B" stroke-width="2" stroke-linecap="round" stroke-linejoin="round"/>
</svg>
