<svg width="28" height="28" viewBox="0 0 28 28" fill="none" xmlns="http://www.w3.org/2000/svg">
<path d="M24.3975 9.388L25.2345 8.5525L22.5 5.845V1.75H21.345V6.319L24.3975 9.388ZM5.2575 21.4225C5.7235 21.4225 6.1175 21.2595 6.4395 20.9335C6.7615 20.6065 6.9225 20.2095 6.9225 19.7425C6.9225 19.2755 6.7595 18.8815 6.4335 18.5605C6.1065 18.2385 5.7095 18.0775 5.2425 18.0775C4.7755 18.0775 4.3815 18.2405 4.0605 18.5665C3.7385 18.8935 3.5775 19.2905 3.5775 19.7575C3.5775 20.2245 3.7405 20.6185 4.0665 20.9395C4.3935 21.2615 4.7905 21.4225 5.2575 21.4225ZM15.7575 21.4225C16.2235 21.4225 16.6175 21.2595 16.9395 20.9335C17.2615 20.6065 17.4225 20.2095 17.4225 19.7425C17.4225 19.2755 17.2595 18.8815 16.9335 18.5605C16.6065 18.2385 16.2095 18.0775 15.7425 18.0775C15.2755 18.0775 14.8815 18.2405 14.5605 18.5665C14.2385 18.8935 14.0775 19.2905 14.0775 19.7575C14.0775 20.2245 14.2405 20.6185 14.5665 20.9395C14.8935 21.2615 15.2905 21.4225 15.7575 21.4225ZM3.057 28C2.845 28 2.667 27.928 2.523 27.784C2.379 27.64 2.307 27.462 2.307 27.25V24.406C1.819 24.194 1.3125 23.7435 0.7875 23.0545C0.2625 22.3645 0 21.5705 0 20.6725V7C0 6.327 0.182 5.6955 0.546 5.1055C0.91 4.5155 1.572 4.0075 2.532 3.5815C3.49 3.1545 4.816 2.8425 6.51 2.6455C8.205 2.4485 10.379 2.406 13.032 2.518C12.93 2.753 12.8435 2.9915 12.7725 3.2335C12.7025 3.4755 12.639 3.731 12.582 4C8.706 3.887 5.989 4.0545 4.431 4.5025C2.873 4.9505 1.948 5.552 1.656 6.307H12.3465C12.3465 6.557 12.3625 6.807 12.3945 7.057C12.4255 7.307 12.473 7.557 12.537 7.807H1.5V14.5H17.688C18.119 14.815 18.6535 15.0765 19.2915 15.2845C19.9285 15.4925 20.498 15.5965 21 15.5965V20.6725C21 21.5705 20.7375 22.3645 20.2125 23.0545C19.6875 23.7445 19.181 24.1945 18.693 24.4045V27.25C18.693 27.463 18.621 27.641 18.477 27.784C18.333 27.927 18.155 27.999 17.943 28H17.5965C17.3835 28 17.2055 27.928 17.0625 27.784C16.9195 27.64 16.8475 27.462 16.8465 27.25V25H4.1535V27.25C4.1535 27.463 4.0815 27.641 3.9375 27.784C3.7935 27.927 3.616 27.999 3.405 28H3.06H3.057ZM16.5 16H1.5H19.5H16.5ZM21.9225 12.0775C20.2525 12.0775 18.835 11.495 17.67 10.33C16.505 9.165 15.9225 7.7475 15.9225 6.0775C15.9225 4.4055 16.505 2.9875 17.67 1.8235C18.834 0.659499 20.2515 0.0774994 21.9225 0.0774994C23.5945 0.0774994 25.0125 0.659499 26.1765 1.8235C27.3405 2.9875 27.9225 4.4055 27.9225 6.0775C27.9225 7.7475 27.3405 9.165 26.1765 10.33C25.0125 11.495 23.5945 12.0775 21.9225 12.0775ZM4.5 23.5H16.5C17.325 23.5 18.0315 23.2065 18.6195 22.6195C19.2075 22.0325 19.501 21.326 19.5 20.5V16H1.5V20.5C1.5 21.325 1.794 22.0315 2.382 22.6195C2.97 23.2075 3.676 23.501 4.5 23.5ZM12.345 6.307H1.656H12.348H12.345Z" fill="#01215B"/>
</svg>
