<svg width="43" height="30" viewBox="0 0 43 30" fill="none" xmlns="http://www.w3.org/2000/svg">
<path d="M42.6542 10.8945L34.495 1.73874C34.2259 1.42915 33.8896 1.18016 33.5097 1.00933C33.1299 0.838496 32.7158 0.749973 32.2966 0.75H2.86667C2.10638 0.75 1.37723 1.04088 0.839627 1.55864C0.302023 2.07641 0 2.77864 0 3.51087V22.837C0 23.5692 0.302023 24.2715 0.839627 24.7892C1.37723 25.307 2.10638 25.5979 2.86667 25.5979H5.9125C6.22826 26.7856 6.9455 27.8384 7.95114 28.5902C8.95678 29.3419 10.1936 29.75 11.4667 29.75C12.7397 29.75 13.9765 29.3419 14.9822 28.5902C15.9878 27.8384 16.7051 26.7856 17.0208 25.5979H25.9792C26.2949 26.7856 27.0122 27.8384 28.0178 28.5902C29.0234 29.3419 30.2603 29.75 31.5333 29.75C32.8064 29.75 34.0432 29.3419 35.0489 28.5902C36.0545 27.8384 36.7717 26.7856 37.0875 25.5979H40.1333C40.8936 25.5979 41.6228 25.307 42.1604 24.7892C42.698 24.2715 43 23.5692 43 22.837V11.7935C43 11.4637 42.8773 11.1447 42.6542 10.8945ZM38.4474 10.4131H28.6667V3.51087H32.2966L38.4474 10.4131ZM15.7667 10.4131V3.51087H25.8V10.4131H15.7667ZM12.9 3.51087V10.4131H2.86667V3.51087H12.9ZM11.4667 26.9783C10.8997 26.9783 10.3455 26.8164 9.87403 26.513C9.40261 26.2096 9.03518 25.7785 8.81821 25.274C8.60124 24.7695 8.54447 24.2144 8.65508 23.6788C8.76569 23.1432 9.03872 22.6513 9.43963 22.2652C9.84054 21.8791 10.3513 21.6161 10.9074 21.5096C11.4635 21.4031 12.0399 21.4577 12.5637 21.6667C13.0875 21.8757 13.5352 22.2295 13.8502 22.6836C14.1652 23.1376 14.3333 23.6714 14.3333 24.2174C14.3333 24.9497 14.0313 25.6519 13.4937 26.1697C12.9561 26.6874 12.227 26.9783 11.4667 26.9783ZM31.5333 26.9783C30.9664 26.9783 30.4121 26.8164 29.9407 26.513C29.4693 26.2096 29.1018 25.7785 28.8849 25.274C28.6679 24.7695 28.6111 24.2144 28.7217 23.6788C28.8324 23.1432 29.1054 22.6513 29.5063 22.2652C29.9072 21.8791 30.418 21.6161 30.9741 21.5096C31.5302 21.4031 32.1065 21.4577 32.6304 21.6667C33.1542 21.8757 33.6019 22.2295 33.9169 22.6836C34.2319 23.1376 34.4 23.6714 34.4 24.2174C34.4 24.9497 34.098 25.6519 33.5604 26.1697C33.0228 26.6874 32.2936 26.9783 31.5333 26.9783ZM37.0875 22.837C36.7717 21.6492 36.0545 20.5965 35.0489 19.8447C34.0432 19.0929 32.8064 18.6849 31.5333 18.6849C30.2603 18.6849 29.0234 19.0929 28.0178 19.8447C27.0122 20.5965 26.2949 21.6492 25.9792 22.837H17.0208C16.7051 21.6492 15.9878 20.5965 14.9822 19.8447C13.9765 19.0929 12.7397 18.6849 11.4667 18.6849C10.1936 18.6849 8.95678 19.0929 7.95114 19.8447C6.9455 20.5965 6.22826 21.6492 5.9125 22.837H2.86667V13.1739H40.1333V22.837H37.0875Z" fill="#01215B"/>
</svg>
