<svg width="37" height="38" viewBox="0 0 37 38" fill="none" xmlns="http://www.w3.org/2000/svg">
<path d="M24.4262 3.50044L24.4319 3.49465L24.4376 3.48873C25.0056 2.89536 26.0544 2.89536 26.6224 3.48873L26.628 3.49465L26.6338 3.50044C27.2584 4.12501 27.238 5.13434 26.6478 5.69446L26.6407 5.70119L26.6338 5.70811L21.5501 10.7919C17.75 10.8097 14.6762 13.8886 14.6667 17.6907L10.4398 21.9176C9.83119 22.5262 9.54263 23.3845 9.65999 24.2371L9.96394 26.4452C9.9855 26.6019 9.93288 26.7597 9.82158 26.872C9.58309 27.1128 9.18022 27.057 9.01612 26.7605L7.3936 23.8289C7.14396 23.3779 6.77256 23.0061 6.32177 22.7559L3.37581 21.1213C3.06962 20.9514 3.00943 20.5366 3.25471 20.2867C3.37344 20.1657 3.54286 20.1088 3.71053 20.1337L5.92473 20.4614C6.7858 20.5888 7.65638 20.301 8.27188 19.6855L11.6068 16.3506C12.9171 15.0403 12.5828 12.8354 10.9429 11.9725L3.834 8.23143C3.31914 7.96049 3.21533 7.26765 3.62818 6.85771C3.83817 6.6492 4.14049 6.56306 4.42885 6.62958L16.6501 9.44885C17.574 9.66197 18.5424 9.38417 19.2128 8.71377L24.4262 3.50044Z" stroke="#01215B" stroke-width="1.5"/>
<path fill-rule="evenodd" clip-rule="evenodd" d="M33.2492 17.0623C33.2492 15.9849 32.8212 14.9517 32.0594 14.1898C31.2976 13.428 30.2643 13 29.1869 13H21.0623C19.9849 13 18.9517 13.428 18.1898 14.1898C17.428 14.9517 17 15.9849 17 17.0623V25.1347C16.9996 26.0026 17.2772 26.8478 17.792 27.5464C18.3069 28.2451 19.032 28.7605 19.861 29.0171C21.5646 29.5515 23.3392 29.8254 25.1246 29.8296C26.9101 29.8251 28.6847 29.5507 30.3882 29.016C31.2171 28.7594 31.942 28.2441 32.4569 27.5457C32.9717 26.8473 33.2494 26.0024 33.2492 25.1347V17.0623ZM18.1607 25.1347V17.0623C18.1607 16.2927 18.4664 15.5547 19.0105 15.0105C19.5547 14.4664 20.2927 14.1607 21.0623 14.1607H29.1869C29.9565 14.1607 30.6945 14.4664 31.2387 15.0105C31.7829 15.5547 32.0886 16.2927 32.0886 17.0623V25.1347C32.0888 25.7545 31.8907 26.358 31.5231 26.857C31.1555 27.3559 30.6378 27.7241 30.0458 27.9075C28.4532 28.4079 26.794 28.6646 25.1246 28.6689C23.4552 28.6646 21.7961 28.4079 20.2034 27.9075C19.6114 27.7241 19.0938 27.3559 18.7262 26.857C18.3586 26.358 18.1604 25.7545 18.1607 25.1347Z" fill="#01215B"/>
<path fill-rule="evenodd" clip-rule="evenodd" d="M21.0623 26.9278C21.524 26.9278 21.9669 26.7444 22.2934 26.4179C22.6199 26.0914 22.8033 25.6485 22.8033 25.1868C22.8033 24.7251 22.6199 24.2822 22.2934 23.9557C21.9669 23.6292 21.524 23.4458 21.0623 23.4458C20.6006 23.4458 20.1577 23.6292 19.8312 23.9557C19.5047 24.2822 19.3213 24.7251 19.3213 25.1868C19.3213 25.6485 19.5047 26.0914 19.8312 26.4179C20.1577 26.7444 20.6006 26.9278 21.0623 26.9278ZM21.0623 24.6065C21.2162 24.6065 21.3638 24.6676 21.4727 24.7764C21.5815 24.8853 21.6426 25.0329 21.6426 25.1868C21.6426 25.3407 21.5815 25.4883 21.4727 25.5971C21.3638 25.706 21.2162 25.7671 21.0623 25.7671C20.9084 25.7671 20.7608 25.706 20.652 25.5971C20.5431 25.4883 20.482 25.3407 20.482 25.1868C20.482 25.0329 20.5431 24.8853 20.652 24.7764C20.7608 24.6676 20.9084 24.6065 21.0623 24.6065ZM29.1869 26.9278C29.6487 26.9278 30.0915 26.7444 30.418 26.4179C30.7445 26.0914 30.9279 25.6485 30.9279 25.1868C30.9279 24.7251 30.7445 24.2822 30.418 23.9557C30.0915 23.6292 29.6487 23.4458 29.1869 23.4458C28.7252 23.4458 28.2824 23.6292 27.9559 23.9557C27.6294 24.2822 27.4459 24.7251 27.4459 25.1868C27.4459 25.6485 27.6294 26.0914 27.9559 26.4179C28.2824 26.7444 28.7252 26.9278 29.1869 26.9278ZM29.1869 24.6065C29.3408 24.6065 29.4885 24.6676 29.5973 24.7764C29.7061 24.8853 29.7673 25.0329 29.7673 25.1868C29.7673 25.3407 29.7061 25.4883 29.5973 25.5971C29.4885 25.706 29.3408 25.7671 29.1869 25.7671C29.033 25.7671 28.8854 25.706 28.7766 25.5971C28.6677 25.4883 28.6066 25.3407 28.6066 25.1868C28.6066 25.0329 28.6677 24.8853 28.7766 24.7764C28.8854 24.6676 29.033 24.6065 29.1869 24.6065Z" fill="#01215B"/>
<path d="M31.5454 33.516C31.6022 33.6561 31.7116 33.7686 31.8501 33.8293C31.9886 33.8901 32.1453 33.8944 32.2869 33.8413C32.4286 33.7881 32.5439 33.6818 32.6083 33.545C32.6727 33.4081 32.6811 33.2516 32.6318 33.1086L30.8908 28.4659C30.833 28.3274 30.7237 28.2166 30.5859 28.1569C30.4481 28.0972 30.2926 28.0933 30.1519 28.1459C30.0113 28.1984 29.8965 28.3035 29.8317 28.4389C29.7669 28.5744 29.7571 28.7297 29.8044 28.8722L31.5454 33.5148M19.9388 28.4659C19.9634 28.3919 20.0026 28.3235 20.0542 28.265C20.1058 28.2064 20.1687 28.1589 20.2391 28.1252C20.3095 28.0915 20.386 28.0724 20.4639 28.0689C20.5419 28.0655 20.6198 28.0778 20.6929 28.1051C20.766 28.1325 20.8328 28.1742 20.8894 28.228C20.9459 28.2818 20.9911 28.3464 21.0221 28.418C21.0531 28.4896 21.0694 28.5667 21.0699 28.6448C21.0704 28.7228 21.0552 28.8002 21.0252 28.8722L19.2842 33.5148C19.2264 33.6534 19.1171 33.7641 18.9793 33.8238C18.8415 33.8835 18.686 33.8875 18.5453 33.8349C18.4047 33.7823 18.2899 33.6773 18.2251 33.5418C18.1603 33.4064 18.1505 33.2511 18.1978 33.1086L19.9388 28.4659Z" fill="#01215B"/>
<path fill-rule="evenodd" clip-rule="evenodd" d="M30.9279 17.6426C30.9279 17.027 30.6834 16.4365 30.248 16.0012C29.8127 15.5659 29.2223 15.3213 28.6066 15.3213H21.6426C21.027 15.3213 20.4366 15.5659 20.0012 16.0012C19.5659 16.4365 19.3213 17.027 19.3213 17.6426V20.6197C19.3214 21.1228 19.4848 21.6122 19.7871 22.0143C20.0894 22.4164 20.5141 22.7095 20.9973 22.8493C22.3715 23.2486 23.7481 23.4459 25.1246 23.4459C26.5012 23.4459 27.8777 23.2474 29.2519 22.8493C29.7352 22.7095 30.1599 22.4164 30.4622 22.0143C30.7644 21.6122 30.9279 21.1228 30.9279 20.6197V17.6426ZM20.482 20.6197V17.6426C20.482 17.3348 20.6043 17.0396 20.8219 16.8219C21.0396 16.6042 21.3348 16.4819 21.6426 16.4819H28.6066C28.9144 16.4819 29.2096 16.6042 29.4273 16.8219C29.645 17.0396 29.7673 17.3348 29.7673 17.6426V20.6197C29.7671 20.8711 29.6853 21.1157 29.5342 21.3167C29.3831 21.5176 29.1708 21.664 28.9293 21.7339C27.6935 22.0965 26.4125 22.2821 25.1246 22.2852C23.8583 22.2852 22.5897 22.1019 21.32 21.7351C21.0783 21.6651 20.8658 21.5185 20.7147 21.3174C20.5635 21.1162 20.4819 20.8713 20.482 20.6197Z" fill="#01215B"/>
<path d="M19.6115 32.1509C19.4576 32.1509 19.31 32.0898 19.2011 31.9809C19.0923 31.8721 19.0312 31.7245 19.0312 31.5706C19.0312 31.4167 19.0923 31.269 19.2011 31.1602C19.31 31.0514 19.4576 30.9902 19.6115 30.9902H31.2181C31.372 30.9902 31.5196 31.0514 31.6284 31.1602C31.7373 31.269 31.7984 31.4167 31.7984 31.5706C31.7984 31.7245 31.7373 31.8721 31.6284 31.9809C31.5196 32.0898 31.372 32.1509 31.2181 32.1509H19.6115Z" fill="#01215B"/>
</svg>
