<svg width="35" height="35" viewBox="0 0 35 35" fill="none" xmlns="http://www.w3.org/2000/svg">
<path d="M13.25 3.08334H4.74998C4.37426 3.08334 4.01392 3.2326 3.74824 3.49828C3.48257 3.76395 3.33331 4.12429 3.33331 4.50001V13C3.33331 13.3757 3.48257 13.7361 3.74824 14.0017C4.01392 14.2674 4.37426 14.4167 4.74998 14.4167H13.25C13.6257 14.4167 13.986 14.2674 14.2517 14.0017C14.5174 13.7361 14.6666 13.3757 14.6666 13V4.50001C14.6666 4.12429 14.5174 3.76395 14.2517 3.49828C13.986 3.2326 13.6257 3.08334 13.25 3.08334ZM13.25 20.0833H4.74998C4.37426 20.0833 4.01392 20.2326 3.74824 20.4983C3.48257 20.764 3.33331 21.1243 3.33331 21.5V30C3.33331 30.3757 3.48257 30.7361 3.74824 31.0017C4.01392 31.2674 4.37426 31.4167 4.74998 31.4167H13.25C13.6257 31.4167 13.986 31.2674 14.2517 31.0017C14.5174 30.7361 14.6666 30.3757 14.6666 30V21.5C14.6666 21.1243 14.5174 20.764 14.2517 20.4983C13.986 20.2326 13.6257 20.0833 13.25 20.0833ZM30.25 3.08334H21.75C21.3743 3.08334 21.0139 3.2326 20.7482 3.49828C20.4826 3.76395 20.3333 4.12429 20.3333 4.50001V13C20.3333 13.3757 20.4826 13.7361 20.7482 14.0017C21.0139 14.2674 21.3743 14.4167 21.75 14.4167H30.25C30.6257 14.4167 30.986 14.2674 31.2517 14.0017C31.5174 13.7361 31.6666 13.3757 31.6666 13V4.50001C31.6666 4.12429 31.5174 3.76395 31.2517 3.49828C30.986 3.2326 30.6257 3.08334 30.25 3.08334Z" stroke="#01215B" stroke-width="2" stroke-linejoin="round"/>
<path d="M20.3333 20.0833H31.6666M26 25.75H31.6666M20.3333 31.4167H31.6666" stroke="#01215B" stroke-width="2" stroke-linecap="round" stroke-linejoin="round"/>
</svg>
