<svg width="39" height="40" viewBox="0 0 39 40" fill="none" xmlns="http://www.w3.org/2000/svg">
<path d="M36.5625 31.2188H2.4375V33.6563H4.875V36.0938H7.3125V33.6563H13.4062V36.0938H15.8438V33.6563H21.9375V36.0938H24.375V33.6563H30.4688V36.0938H32.9062V33.6563H36.5625V31.2188ZM36.2139 20.9691L22.1203 11.28C19.0752 9.17991 15.4624 8.05757 11.7634 8.06252H2.4375V10.5H11.7634C14.9691 10.4957 18.1001 11.4679 20.7395 13.2873L22.0021 14.1563H10.9688V16.5938H25.5474L34.8343 22.9776C35.0415 23.12 35.1976 23.325 35.2798 23.5626C35.3621 23.8002 35.3661 24.0579 35.2913 24.2979C35.2165 24.538 35.0668 24.7477 34.8642 24.8966C34.6616 25.0454 34.4166 25.1255 34.1652 25.125H2.4375V27.5625H34.1664C34.9378 27.5624 35.6889 27.3155 36.3099 26.858C36.9309 26.4005 37.3893 25.7564 37.618 25.0197C37.8468 24.2831 37.8339 23.4926 37.5813 22.7638C37.3287 22.035 36.8495 21.4061 36.2139 20.9691Z" fill="#01215B"/>
</svg>
