<svg width="41" height="33" viewBox="0 0 41 33" fill="none" xmlns="http://www.w3.org/2000/svg">
<path d="M3.64371 29H39.6437" stroke="#01215B" stroke-width="2" stroke-linecap="round"/>
<path d="M3.64371 14H35.6437" stroke="#01215B" stroke-width="2" stroke-linecap="round"/>
<path d="M3.64371 8.46V16.54C3.64371 18.8473 3.64371 20.0009 4.24465 20.8013C4.4147 21.0277 4.61596 21.229 4.84245 21.3991C5.64283 22 6.79646 22 9.10371 22H32.1209C35.8999 22 37.7894 22 38.6872 20.9547C38.9343 20.667 39.1246 20.3351 39.248 19.9766C39.6966 18.6737 38.7421 17.043 36.833 13.7818L36.833 13.7817L32.1033 5.70172C31.4092 4.5161 31.0622 3.92329 30.5309 3.54849C30.3776 3.44038 30.2145 3.34689 30.0438 3.26923C29.4519 3 28.765 3 27.3912 3H9.10371C6.79646 3 5.64283 3 4.84245 3.60095C4.61596 3.77099 4.4147 3.97226 4.24465 4.19874C3.64371 4.99912 3.64371 6.15275 3.64371 8.46Z" stroke="#01215B" stroke-width="2" stroke-linecap="round" stroke-linejoin="round"/>
<path d="M10.6437 3H6.64371C4.98685 3 3.64371 4.34315 3.64371 6V11C3.64371 12.6569 4.98685 14 6.64371 14H10.6437C12.3006 14 13.6437 12.6569 13.6437 11V6C13.6437 4.34315 12.3006 3 10.6437 3Z" stroke="#01215B" stroke-width="2" stroke-linecap="round" stroke-linejoin="round"/>
<path d="M21.6437 3H16.6437C14.9869 3 13.6437 4.34315 13.6437 6V11C13.6437 12.6569 14.9869 14 16.6437 14H21.6437C23.3006 14 24.6437 12.6569 24.6437 11V6C24.6437 4.34315 23.3006 3 21.6437 3Z" stroke="#01215B" stroke-width="2" stroke-linecap="round" stroke-linejoin="round"/>
</svg>
