<svg width="37" height="37" viewBox="0 0 37 37" fill="none" xmlns="http://www.w3.org/2000/svg">
<path d="M22.766 30.5H10.25C8.1815 30.5 6.5 28.8185 6.5 26.75C6.5 24.6815 8.1815 23 10.25 23H20.75C23.645 23 26 20.645 26 17.75C26 14.855 23.645 12.5 20.75 12.5H13.4585C12.9076 13.5798 12.2255 14.5875 11.4275 15.5H20.75C21.9905 15.5 23 16.5095 23 17.75C23 18.9905 21.9905 20 20.75 20H10.25C6.5285 20 3.5 23.0285 3.5 26.75C3.5 30.4715 6.5285 33.5 10.25 33.5H24.6395C23.9034 32.5741 23.2749 31.5677 22.766 30.5ZM8 3.5C5.519 3.5 3.5 5.519 3.5 8C3.5 12.782 8 15.5 8 15.5C8 15.5 12.5 12.7805 12.5 8C12.5 5.519 10.481 3.5 8 3.5ZM8 10.25C7.70443 10.2499 7.41177 10.1916 7.13873 10.0784C6.8657 9.96518 6.61763 9.79931 6.4087 9.59024C6.19977 9.38117 6.03406 9.13299 5.92104 8.85988C5.80802 8.58677 5.7499 8.29407 5.75 7.9985C5.7501 7.70293 5.80841 7.41027 5.92162 7.13723C6.03482 6.8642 6.20069 6.61613 6.40976 6.4072C6.61883 6.19827 6.86701 6.03256 7.14012 5.91954C7.41323 5.80652 7.70593 5.7484 8.0015 5.7485C8.59844 5.7487 9.17084 5.98602 9.5928 6.40826C10.0148 6.8305 10.2517 7.40306 10.2515 8C10.2513 8.59694 10.014 9.16934 9.59174 9.5913C9.1695 10.0133 8.59694 10.2502 8 10.25Z" fill="#01215B"/>
<path d="M29 21.5C26.519 21.5 24.5 23.519 24.5 26C24.5 30.782 29 33.5 29 33.5C29 33.5 33.5 30.7805 33.5 26C33.5 23.519 31.481 21.5 29 21.5ZM29 28.25C28.7044 28.2499 28.4118 28.1916 28.1387 28.0784C27.8657 27.9652 27.6176 27.7993 27.4087 27.5902C27.1998 27.3812 27.0341 27.133 26.921 26.8599C26.808 26.5868 26.7499 26.2941 26.75 25.9985C26.7501 25.7029 26.8084 25.4103 26.9216 25.1372C27.0348 24.8642 27.2007 24.6161 27.4098 24.4072C27.6188 24.1983 27.867 24.0326 28.1401 23.9195C28.4132 23.8065 28.7059 23.7484 29.0015 23.7485C29.5984 23.7487 30.1708 23.986 30.5928 24.4083C31.0148 24.8305 31.2517 25.4031 31.2515 26C31.2513 26.5969 31.014 27.1693 30.5917 27.5913C30.1695 28.0133 29.5969 28.2502 29 28.25Z" fill="#01215B"/>
</svg>
