<svg width="33" height="34" viewBox="0 0 33 34" fill="none" xmlns="http://www.w3.org/2000/svg">
<path fill-rule="evenodd" clip-rule="evenodd" d="M16.423 2.46875H16.577C19.1043 2.46875 21.1063 2.46875 22.6724 2.67913C24.2839 2.89638 25.5888 3.35288 26.6186 4.38138C27.6471 5.41125 28.1036 6.71613 28.3209 8.32763C28.4625 9.37813 28.5079 10.6239 28.523 12.0938H28.875C30.2033 12.0938 31.2813 13.1718 31.2813 14.5V15.875C31.2813 16.6313 30.9238 17.3463 30.3188 17.8L28.5271 19.1434C28.5175 20.8374 28.4776 22.2509 28.3209 23.4224C28.1036 25.0339 27.6471 26.3388 26.6186 27.3686C26.3574 27.6299 26.0783 27.854 25.7813 28.0465V29.625C25.7813 30.2632 25.5277 30.8752 25.0765 31.3265C24.6252 31.7777 24.0132 32.0313 23.375 32.0313H21.3125C20.6743 32.0313 20.0623 31.7777 19.611 31.3265C19.1598 30.8752 18.9063 30.2632 18.9063 29.625V29.273C18.1844 29.2813 17.4103 29.2813 16.577 29.2813H16.423C15.5898 29.2813 14.8143 29.2813 14.0938 29.273V29.625C14.0938 30.2632 13.8402 30.8752 13.389 31.3265C12.9377 31.7777 12.3257 32.0313 11.6875 32.0313H9.625C8.98682 32.0313 8.37478 31.7777 7.92352 31.3265C7.47227 30.8752 7.21875 30.2632 7.21875 29.625V28.0465C6.91662 27.8505 6.63595 27.6233 6.38138 27.3686C5.35287 26.3388 4.89638 25.0339 4.67913 23.4224C4.52238 22.2509 4.4825 20.8374 4.47288 19.1434L2.68125 17.8C2.07625 17.3463 1.71875 16.6313 1.71875 15.875V14.5C1.71875 13.1718 2.79675 12.0938 4.125 12.0938H4.47563C4.49213 10.6239 4.5375 9.37813 4.67913 8.32763C4.89638 6.71613 5.35287 5.41125 6.38138 4.38138C7.41125 3.35288 8.71613 2.89638 10.3276 2.67913C11.8951 2.46875 13.8958 2.46875 16.423 2.46875ZM4.46875 14.1563H4.125C4.03383 14.1563 3.9464 14.1925 3.88193 14.2569C3.81747 14.3214 3.78125 14.4088 3.78125 14.5V15.875C3.78125 15.9284 3.79367 15.981 3.81754 16.0287C3.84141 16.0765 3.87606 16.118 3.91875 16.15L4.46875 16.5625V14.423V14.1563ZM6.5395 19.6563C6.55325 21.078 6.59725 22.211 6.72375 23.1488C6.90938 24.5306 7.25863 25.3281 7.84025 25.9098C8.42188 26.4914 9.21938 26.8406 10.6026 27.0263C12.0161 27.216 13.8779 27.2188 16.5 27.2188C19.1221 27.2188 20.9853 27.216 22.3988 27.0263C23.7806 26.8406 24.5781 26.4914 25.1598 25.9098C25.7414 25.3281 26.0906 24.5306 26.2763 23.1474C26.4028 22.2124 26.4454 21.078 26.4605 19.6563H6.5395ZM26.4688 17.5938H6.53125V14.5C6.53125 11.9109 6.534 10.0629 6.71688 8.65625H26.2831C26.466 10.0629 26.4688 11.9109 26.4688 14.5V17.25V17.5938ZM28.5313 16.5625L29.0813 16.15C29.1239 16.118 29.1586 16.0765 29.1825 16.0287C29.2063 15.981 29.2188 15.9284 29.2188 15.875V14.5C29.2188 14.4088 29.1825 14.3214 29.1181 14.2569C29.0536 14.1925 28.9662 14.1563 28.875 14.1563H28.5313V14.423V16.5625ZM25.7139 6.59375C25.5684 6.31596 25.3816 6.0619 25.1598 5.84025C24.5781 5.25863 23.7806 4.90938 22.3974 4.72375C20.9839 4.534 19.1221 4.53125 16.5 4.53125C13.8779 4.53125 12.0161 4.534 10.6013 4.72375C9.21938 4.90938 8.42188 5.25863 7.84025 5.84025C7.61858 6.06202 7.43176 6.31607 7.28613 6.59375H25.7139ZM9.28125 28.8825V29.625C9.28125 29.8148 9.43525 29.9688 9.625 29.9688H11.6875C11.7787 29.9688 11.8661 29.9325 11.9306 29.8681C11.995 29.8036 12.0313 29.7162 12.0313 29.625V29.218C11.4616 29.1924 10.8932 29.1433 10.3276 29.0709C9.97608 29.0245 9.62691 28.9616 9.28125 28.8825ZM20.9688 29.218V29.625C20.9688 29.8148 21.1228 29.9688 21.3125 29.9688H23.375C23.4662 29.9688 23.5536 29.9325 23.6181 29.8681C23.6825 29.8036 23.7188 29.7162 23.7188 29.625V28.8825C23.3732 28.962 23.024 29.0249 22.6724 29.0709C22.1068 29.1433 21.5384 29.1924 20.9688 29.218ZM8.59375 22.75C8.59375 22.4765 8.7024 22.2142 8.8958 22.0208C9.08919 21.8274 9.3515 21.7188 9.625 21.7188H11.6875C11.961 21.7188 12.2233 21.8274 12.4167 22.0208C12.6101 22.2142 12.7188 22.4765 12.7188 22.75C12.7188 23.0235 12.6101 23.2858 12.4167 23.4792C12.2233 23.6726 11.961 23.7813 11.6875 23.7813H9.625C9.3515 23.7813 9.08919 23.6726 8.8958 23.4792C8.7024 23.2858 8.59375 23.0235 8.59375 22.75ZM20.2813 22.75C20.2813 22.4765 20.3899 22.2142 20.5833 22.0208C20.7767 21.8274 21.039 21.7188 21.3125 21.7188H23.375C23.6485 21.7188 23.9108 21.8274 24.1042 22.0208C24.2976 22.2142 24.4063 22.4765 24.4063 22.75C24.4063 23.0235 24.2976 23.2858 24.1042 23.4792C23.9108 23.6726 23.6485 23.7813 23.375 23.7813H21.3125C21.039 23.7813 20.7767 23.6726 20.5833 23.4792C20.3899 23.2858 20.2813 23.0235 20.2813 22.75Z" fill="#01215B"/>
</svg>
