<svg width="390" height="120" viewBox="0 0 390 120" fill="none" xmlns="http://www.w3.org/2000/svg">
<mask id="mask0_387_15" style="mask-type:alpha" maskUnits="userSpaceOnUse" x="0" y="0" width="390" height="120">
<rect width="390" height="120" fill="#D9D9D9"/>
</mask>
<g mask="url(#mask0_387_15)">
<path d="M0 260.383V0H390V367.277C370.673 381.438 324.984 408.481 296.836 403.365C261.652 396.969 214.574 320.682 175.426 325.25C136.277 329.818 118.437 374.586 59.9619 367.277C13.1817 361.429 0.495553 293.578 0 260.383Z" fill="#0077DD"/>
<g filter="url(#filter0_d_387_15)">
<path d="M130.341 293.805C11.9297 369.748 3.95336 285.11 1.00269 219.21V0H390V350.072C355.411 387.09 317.815 392.118 301.273 377.036C276.542 354.49 215.052 239.475 130.341 293.805Z" fill="#1C31A0" fill-opacity="0.21" shape-rendering="crispEdges"/>
</g>
<g filter="url(#filter1_d_387_15)">
<path d="M265.681 85.0045C217.558 87.5638 190.154 29.7059 182.468 0.457031H388.997V226.222C369.948 237.19 321.324 198.344 336.864 161.783C352.403 125.222 325.835 81.8055 265.681 85.0045Z" fill="#83A6C3" fill-opacity="0.16" shape-rendering="crispEdges"/>
</g>
</g>
<defs>
<filter id="filter0_d_387_15" x="-18.8973" y="-14.9" width="428.797" height="424.779" filterUnits="userSpaceOnUse" color-interpolation-filters="sRGB">
<feFlood flood-opacity="0" result="BackgroundImageFix"/>
<feColorMatrix in="SourceAlpha" type="matrix" values="0 0 0 0 0 0 0 0 0 0 0 0 0 0 0 0 0 0 127 0" result="hardAlpha"/>
<feOffset dy="5"/>
<feGaussianBlur stdDeviation="9.95"/>
<feComposite in2="hardAlpha" operator="out"/>
<feColorMatrix type="matrix" values="0 0 0 0 0.174787 0 0 0 0 0.296541 0 0 0 0 0.72822 0 0 0 0.65 0"/>
<feBlend mode="normal" in2="BackgroundImageFix" result="effect1_dropShadow_387_15"/>
<feBlend mode="normal" in="SourceGraphic" in2="effect1_dropShadow_387_15" result="shape"/>
</filter>
<filter id="filter1_d_387_15" x="160.468" y="-17.543" width="250.53" height="271.652" filterUnits="userSpaceOnUse" color-interpolation-filters="sRGB">
<feFlood flood-opacity="0" result="BackgroundImageFix"/>
<feColorMatrix in="SourceAlpha" type="matrix" values="0 0 0 0 0 0 0 0 0 0 0 0 0 0 0 0 0 0 127 0" result="hardAlpha"/>
<feOffset dy="4"/>
<feGaussianBlur stdDeviation="11"/>
<feComposite in2="hardAlpha" operator="out"/>
<feColorMatrix type="matrix" values="0 0 0 0 0.334832 0 0 0 0 0.518289 0 0 0 0 0.990038 0 0 0 0.15 0"/>
<feBlend mode="normal" in2="BackgroundImageFix" result="effect1_dropShadow_387_15"/>
<feBlend mode="normal" in="SourceGraphic" in2="effect1_dropShadow_387_15" result="shape"/>
</filter>
</defs>
</svg>
